PathFileType	4	(X/Y/Z)	C:/Users/opensim2020/Desktop/walking_exp_matlab/subject01_walking08_straight_02.trc	
DataRate	CameraRate	NumFrames	NumMarkers	Units	OrigDataRate	OrigDataStartFrame	OrigNumFrames	
100.00	100.00	5	43	mm	100.00	2079	311	
Frame#	Time	LFHD			RFHD			LBHD			RBHD			C7			T10			CLAV			STRN			RBAK			LSHO			LUPA			LELB			LFRM			LWRA			LWRB			LFIN			RSHO			RUPA			RELB			RFRM			RWRA			RWRB			RFIN			LASI			RASI			LPSI			RPSI			LTHI			LKNE			LTIB			LANK			LHEE			LTOE			RTHI			RKNE			RTIB			RANK			RHEE			RTOE			*39			*40			*41			*42			
		X1	Y1	Z1	X2	Y2	Z2	X3	Y3	Z3	X4	Y4	Z4	X5	Y5	Z5	X6	Y6	Z6	X7	Y7	Z7	X8	Y8	Z8	X9	Y9	Z9	X10	Y10	Z10	X11	Y11	Z11	X12	Y12	Z12	X13	Y13	Z13	X14	Y14	Z14	X15	Y15	Z15	X16	Y16	Z16	X17	Y17	Z17	X18	Y18	Z18	X19	Y19	Z19	X20	Y20	Z20	X21	Y21	Z21	X22	Y22	Z22	X23	Y23	Z23	X24	Y24	Z24	X25	Y25	Z25	X26	Y26	Z26	X27	Y27	Z27	X28	Y28	Z28	X29	Y29	Z29	X30	Y30	Z30	X31	Y31	Z31	X32	Y32	Z32	X33	Y33	Z33	X34	Y34	Z34	X35	Y35	Z35	X36	Y36	Z36	X37	Y37	Z37	X38	Y38	Z38	X39	Y39	Z39	X40	Y40	Z40	X41	Y41	Z41	X42	Y42	Z42	X43	Y43	Z43	

273	2.720	1513.18005	-565.82092	1661.53552	1400.59607	-583.76642	1671.71570	1499.18799	-454.14816	1607.16699	1379.06006	-469.93573	1616.80054	1453.06128	-429.72321	1422.02307	1430.02942	-395.03476	1129.20435	1448.72058	-572.41437	1352.27820	1446.97278	-616.01019	1197.48096	1367.55017	-375.43979	1229.47888	1612.45764	-515.56396	1378.57593	1686.32361	-471.92654	1191.47168	1674.22424	-442.31238	1044.58838	1698.76196	-460.00702	933.48743	1683.60010	-520.76514	806.84430	1702.49658	-462.85022	810.82697	1712.08728	-497.26614	732.76886	1298.33386	-509.27756	1382.84973	1186.97998	-470.89755	1182.39417	1177.20032	-487.84955	1057.26941	1149.91443	-552.80634	953.54962	1175.83704	-665.88477	871.28918	1134.47949	-627.89172	857.57532	1138.05481	-689.54486	798.96124	1528.08545	-571.27008	927.29480	1310.91736	-561.35791	916.00024	1486.57239	-382.75757	935.27942	1342.38135	-379.22382	935.94171	1613.33667	-613.10687	615.44287	1600.22656	-640.92169	485.89166	1623.32581	-647.65656	301.00848	1588.40466	-704.33655	81.47282	1531.74255	-678.25214	35.00863	1600.91504	-852.01990	92.56998	1272.24133	-460.55533	586.77374	1302.05994	-439.53046	428.49048	1299.91406	-349.80222	276.10049	1348.71704	-271.41846	85.43176	1395.82129	-212.18224	56.82816	1357.58191	-402.73810	34.14414	1423.69788	-567.00458	1702.92419	-3101.82275	1973.15942	1023.55243	-3140.70703	2012.54102	1021.95618			 
274	2.730	1515.00488	-573.23920	1661.00354	1402.42188	-591.11047	1671.24451	1501.04321	-461.51193	1606.61633	1380.84277	-477.29230	1616.26611	1454.81897	-437.10370	1421.34875	1431.80823	-402.88785	1128.49316	1450.25281	-579.84534	1351.78235	1448.36255	-623.80255	1197.18823	1369.29895	-382.94510	1228.75928	1614.12976	-523.12079	1377.94116	1687.82935	-479.69186	1190.74329	1675.66418	-450.32822	1043.84204	1700.06140	-467.90536	932.76611	1684.77014	-528.43762	805.96674	1703.84753	-470.50720	810.12769	1713.27625	-504.67972	731.91895	1299.94775	-516.43793	1382.37170	1188.78027	-477.80878	1181.79370	1178.84875	-495.02060	1056.76685	1151.34229	-560.20685	953.13782	1177.11182	-673.28333	870.99487	1135.80505	-635.18933	857.26532	1139.23767	-696.93732	798.70056	1529.32947	-579.64368	926.70502	1312.16699	-569.07141	915.62598	1488.38513	-390.98480	934.72900	1344.30078	-387.06705	935.92676	1613.34912	-621.46783	614.73206	1600.24988	-649.40125	485.31531	1623.49011	-655.76172	300.10938	1588.31689	-711.70496	80.48544	1531.84558	-685.08270	34.06681	1599.77844	-859.51190	91.37266	1272.96716	-466.77753	586.72559	1302.37061	-444.82697	428.35834	1299.96533	-353.18854	276.97766	1348.24622	-272.46042	87.00204	1395.26697	-212.62651	59.08171	1357.55701	-402.90530	34.31852	1425.54590	-574.33997	1702.48999	-3101.92896	1973.09875	1023.40363	-3140.70972	2012.46313	1022.01685			 
275	2.740	1516.82275	-580.61023	1660.44067	1404.21753	-598.34888	1670.77161	1502.97302	-468.88748	1606.04236	1382.74573	-484.52249	1615.76990	1456.73047	-444.55377	1420.79382	1433.58887	-410.87570	1127.75159	1451.88452	-587.38336	1351.39941	1449.83875	-631.63867	1196.81238	1371.11328	-390.55621	1228.06812	1615.87634	-530.73975	1377.34875	1689.42627	-487.60132	1189.97278	1677.15515	-458.52881	1043.14539	1701.51501	-476.03656	932.04626	1686.05188	-536.41626	805.22839	1705.23315	-478.45581	809.41882	1714.50891	-512.61041	731.12109	1301.54944	-523.91174	1382.07642	1190.74426	-484.78168	1181.32178	1180.52979	-502.18466	1056.29932	1152.88367	-567.30383	952.65289	1178.43323	-680.49475	870.58301	1137.16699	-642.35541	856.83032	1140.45642	-704.13275	798.29865	1530.65137	-588.15338	926.16516	1313.47510	-576.92902	915.24561	1490.22375	-399.39322	934.24591	1346.30042	-394.92728	936.06940	1613.43750	-630.05646	614.10309	1600.14612	-657.91089	484.73468	1623.58887	-663.33661	299.09369	1587.95435	-717.88654	79.21933	1531.83057	-690.56342	33.03115	1598.29248	-865.76135	89.00599	1273.91199	-473.40945	586.56158	1302.73340	-450.49432	428.13834	1300.13660	-356.90237	278.02008	1347.81299	-273.42584	89.03360	1394.76184	-213.29369	61.79993	1357.44324	-403.10980	34.01691	1427.38562	-581.58478	1702.01550	-3101.87573	1973.17578	1023.55487	-3140.65405	2012.49500	1022.00897			 
276	2.750	1518.68005	-587.97229	1659.94165	1406.04443	-605.58038	1670.33960	1504.95154	-476.31738	1605.49316	1384.78186	-491.71921	1615.25085	1458.68945	-451.99277	1420.09082	1435.38574	-418.96356	1127.02124	1453.57312	-594.90851	1350.92505	1451.41028	-639.53546	1196.51599	1372.97021	-398.23798	1227.34119	1617.68872	-538.40961	1376.73914	1691.17114	-495.54684	1189.27429	1678.82422	-466.79224	1042.45569	1703.04529	-484.33844	931.32465	1687.40344	-544.68433	804.48065	1706.70264	-486.75610	808.71210	1715.75195	-520.86108	730.29028	1303.49976	-531.08783	1381.41016	1192.69629	-491.73285	1180.93884	1182.35730	-509.23703	1055.90295	1154.54895	-574.29651	952.24121	1179.76477	-687.46973	870.07422	1138.57556	-649.25989	856.36707	1141.69751	-710.91034	797.77161	1532.07434	-596.85663	925.72974	1314.87634	-585.00873	914.93530	1492.04333	-407.96970	933.79303	1348.06384	-403.28546	935.77289	1613.45117	-638.81604	613.43115	1599.96167	-666.46198	484.13492	1623.55591	-670.55353	297.93564	1587.46301	-722.91071	77.70451	1531.68335	-694.21582	31.98801	1596.04675	-871.15704	86.18330	1274.75549	-480.38565	586.38556	1303.16968	-456.58096	427.76038	1300.21643	-360.83609	279.07516	1347.34644	-274.78522	90.92867	1394.14978	-214.16016	64.58843	1357.20886	-403.41376	34.01941	1429.24927	-588.83044	1701.55103	-3101.91797	1972.98621	1023.88159	-3140.65186	2012.44543	1021.92511			 
277	2.760	1520.59888	-595.35779	1659.48596	1407.92761	-612.82867	1669.89929	1507.00781	-483.65482	1604.90405	1386.85901	-498.91010	1614.71704	1460.64526	-459.49667	1419.21118	1437.31030	-427.11664	1126.23596	1455.42566	-602.57605	1350.64746	1453.03918	-647.53082	1196.30566	1374.95557	-406.00854	1226.57019	1619.62402	-546.16833	1376.15820	1693.03296	-503.61887	1188.61499	1680.57434	-475.21329	1041.77710	1704.67554	-492.82474	930.62756	1688.79773	-553.24622	803.81244	1708.25513	-495.32120	808.05090	1717.20142	-529.48822	729.54517	1305.29016	-538.49561	1381.23230	1194.77332	-498.75003	1180.62122	1184.57971	-516.16815	1055.48730	1156.26550	-581.17224	951.85620	1181.16565	-694.28412	869.46326	1140.13672	-655.94672	855.80127	1143.11206	-717.58527	797.21429	1533.47253	-605.64258	925.26331	1316.36707	-593.15436	914.55792	1493.92285	-416.71561	933.36102	1350.05701	-411.57724	935.64026	1613.44653	-647.75031	612.72491	1599.62317	-674.87958	483.29691	1623.34912	-677.37146	296.53879	1586.67798	-727.16058	75.86535	1531.16687	-697.81226	30.09098	1593.51794	-875.50616	82.61292	1275.65442	-487.74646	586.14337	1303.77673	-463.12015	427.44720	1300.41748	-364.95569	280.12592	1347.08472	-275.89035	93.24599	1393.81128	-215.12486	67.87979	1357.06177	-403.68649	34.01492	1431.14233	-596.04456	1701.05225	-3101.90771	1973.19031	1023.42120	-3140.69775	2012.50415	1022.03223			 
